<svg xmlns="http://www.w3.org/2000/svg" width="111" height="39" viewBox="0 0 111 39">
  <g fill="none" fill-rule="evenodd">
    <path fill="#ACD1D9" d="M107.523273,1.52972727 L48.6398182,1.52972727 C47.6073636,1.52972727 46.7687273,2.36836364 46.7687273,3.40081818 L46.7687273,35.8280909 C46.7687273,36.8605455 47.6073636,37.6991818 48.6398182,37.6991818 L107.523273,37.6991818 C108.552,37.6991818 109.394364,36.8605455 109.394364,35.8280909 L109.394364,3.40081818 C109.394364,2.36836364 108.552,1.52972727 107.523273,1.52972727"/>
    <path fill="#ACD1D9" d="M78.0815455,1.52972727 L78.0815455,37.6991818 L48.6398182,37.6991818 C47.6073636,37.6991818 46.7687273,36.8605455 46.7687273,35.8280909 L46.7687273,3.40081818 C46.7687273,2.36836364 47.6073636,1.52972727 48.6398182,1.52972727 L78.0815455,1.52972727"/>
    <path fill="#86B3BD" d="M46.7687273,3.40081818 L75.4128182,31.2882727 C76.8813636,32.7195455 79.2817273,32.7195455 80.7502727,31.2882727 L109.394364,3.40081818 C109.394364,2.36836364 108.552,1.52972727 107.523273,1.52972727 L48.6398182,1.52972727 C47.6073636,1.52972727 46.7687273,2.36836364 46.7687273,3.40081818"/>
    <path fill="#ACD1D9" d="M46.7687273,3.40081818 L75.4128182,31.2882727 C76.1470909,32.0039091 77.1124545,32.3617273 78.0815455,32.3617273 L78.0815455,1.52972727 L48.6398182,1.52972727 C47.6073636,1.52972727 46.7687273,2.36836364 46.7687273,3.40081818"/>
    <path fill="#171816" d="M91.4475455 21.247C91.1307273 20.9339091 91.1307273 20.4232727 91.4475455 20.1064545 91.7606364 19.7896364 92.275 19.7896364 92.5880909 20.1064545L105.514273 33.0326364C105.827364 33.3494545 105.827364 33.8600909 105.514273 34.1769091 105.197455 34.49 104.686818 34.49 104.37 34.1769091L91.4475455 21.247M63.575 20.1064545C63.8918182 19.7896364 64.3987273 19.7896364 64.7192727 20.1064545 65.0323636 20.4232727 65.0323636 20.9339091 64.7192727 21.247L51.7893636 34.1769091C51.4762727 34.49 50.9656364 34.49 50.6488182 34.1769091 50.332 33.8600909 50.332 33.3494545 50.6488182 33.0326364L63.575 20.1064545"/>
    <path fill="#171816" d="M48.6398182,0.720909091 L107.523273,0.720909091 C108.257545,0.720909091 108.928455,1.02281818 109.413,1.50736364 L109.416727,1.50736364 C109.901273,1.99190909 110.199455,2.66281818 110.199455,3.40081818 L110.199455,35.8280909 C110.199455,36.5660909 109.901273,37.237 109.416727,37.7215455 C108.932182,38.2060909 108.261273,38.508 107.523273,38.508 L48.6398182,38.508 C47.9018182,38.508 47.2309091,38.2060909 46.7463636,37.7215455 C46.2618182,37.237 45.9599091,36.5660909 45.9599091,35.8280909 L45.9599091,3.40081818 C45.9599091,2.66281818 46.2618182,1.99563636 46.7463636,1.51109091 L46.7463636,1.50736364 C47.2309091,1.02281818 47.9018182,0.720909091 48.6398182,0.720909091 Z M107.523273,2.33481818 L48.6398182,2.33481818 C48.3490909,2.33481818 48.0807273,2.45409091 47.8869091,2.64790909 C47.6930909,2.84172727 47.5738182,3.10636364 47.5738182,3.40081818 L47.5738182,35.8280909 C47.5738182,36.1225455 47.6968182,36.3871818 47.8869091,36.581 C48.0807273,36.7710909 48.3490909,36.8940909 48.6398182,36.8940909 L107.523273,36.8940909 C107.814,36.8940909 108.082364,36.7710909 108.272455,36.581 C108.466273,36.3871818 108.585545,36.1225455 108.585545,35.8280909 L108.585545,3.40081818 C108.585545,3.10636364 108.466273,2.84172727 108.272455,2.64790909 L108.272455,2.64418182 C108.082364,2.45409091 107.817727,2.33481818 107.523273,2.33481818 L107.523273,2.33481818 Z"/>
    <path fill="#171816" d="M74.85,31.866 L45.9599091,3.73627273 L45.9599091,3.40081818 C45.9599091,2.66281818 46.2618182,1.99190909 46.7463636,1.50736364 C47.2309091,1.02281818 47.9018182,0.720909091 48.6398182,0.720909091 L107.523273,0.720909091 C108.261273,0.720909091 108.932182,1.02281818 109.416727,1.50736364 C109.901273,1.99190909 110.199455,2.66281818 110.199455,3.40081818 L110.199455,3.73627273 L81.3093636,31.866 C80.4185455,32.7344545 79.2481818,33.1668182 78.0815455,33.1668182 C76.9149091,33.1668182 75.7445455,32.7344545 74.85,31.866 Z M47.6185455,3.10263636 L75.9756364,30.7105455 C76.5496364,31.2733636 77.3137273,31.5529091 78.0815455,31.5529091 C78.8456364,31.5529091 79.6134545,31.2733636 80.1874545,30.7105455 L108.544545,3.10263636 C108.492364,2.92745455 108.399182,2.77463636 108.272455,2.64790909 C108.082364,2.45409091 107.814,2.33481818 107.523273,2.33481818 L48.6398182,2.33481818 C48.3490909,2.33481818 48.0807273,2.45409091 47.8869091,2.64790909 C47.7639091,2.77463636 47.667,2.92745455 47.6185455,3.10263636 L47.6185455,3.10263636 Z"/>
    <path fill="#171816" d="M72.4682727.720909091C72.9155455.720909091 73.2733636 1.08245455 73.2733636 1.52972727 73.2733636 1.97327273 72.9155455 2.33481818 72.4682727 2.33481818L1.06118182 2.33481818C.613909091 2.33481818.252363636 1.97327273.252363636 1.52972727.252363636 1.08245455.613909091.720909091 1.06118182.720909091L72.4682727.720909091M46.7687273 9.72972727C47.2122727 9.72972727 47.5738182 10.0912727 47.5738182 10.5385455 47.5738182 10.9858182 47.2122727 11.3473636 46.7687273 11.3473636L18.557 11.3473636C18.1097273 11.3473636 17.7481818 10.9858182 17.7481818 10.5385455 17.7481818 10.0912727 18.1097273 9.72972727 18.557 9.72972727L46.7687273 9.72972727M46.7687273 18.8056364C47.2122727 18.8056364 47.5738182 19.1671818 47.5738182 19.6144545 47.5738182 20.058 47.2122727 20.4232727 46.7687273 20.4232727L31.3229091 20.4232727C30.8793636 20.4232727 30.5178182 20.058 30.5178182 19.6144545 30.5178182 19.1671818 30.8793636 18.8056364 31.3229091 18.8056364L46.7687273 18.8056364"/>
  </g>
</svg>
