<svg xmlns="http://www.w3.org/2000/svg" width="64" height="80" viewBox="0 0 64 80">
  <g fill="none" fill-rule="evenodd">
    <path fill="#DC4136" d="M44.8420742,38.9855465 C51.626385,38.9855465 57.1251293,44.5878807 57.1251293,51.5 C57.1251293,58.4121193 51.626385,64.0144535 44.8420742,64.0144535 C44.5669966,64.0144535 44.291919,64.0058742 44.0196484,63.9858556 L44.0196484,69.516695 C44.0196484,69.6739836 44.0140346,69.8284124 44,69.9799814 C44.2806914,69.9942804 44.5585759,70 44.8420742,70 C54.8711774,70 63,61.7151801 63,51.5 C63,41.2819601 54.8711774,33 44.8420742,33 C44.5669966,33 44.291919,33.0057196 44.0196484,33.0200186 L44.0196484,39.0141444 C44.291919,38.9941258 44.5669966,38.9855465 44.8420742,38.9855465"/>
    <path fill="#C12D2B" d="M44 64.1518948L44 29.9393047C44 29.4206702 43.5938158 29 43.0992105 29L23 29 23 75 38.9406579 75C41.5739474 75 43.7540789 72.8764798 43.9806579 70.1911055L44 69.7243345 44 64.1518948M39.1570016 75L23 75 23 80 39.3166392 80C39.6919275 80 40 79.6472097 40 79.2174471L40 75 39.1570016 75"/>
    <path fill="#252522" d="M52.9683184,42.8972653 C50.8700244,40.8245381 47.9699431,39.54102 44.7656377,39.54102 L44.3732738,39.5438285 C44.2737612,39.5494457 44.1458164,39.5550628 43.9894395,39.5662971 L43.0909829,39.6252772 L43.0909829,32.0561715 L43.8984565,32.01966 C44.2225833,32.0056171 44.5125914,32 44.7656377,32 C50.0767669,32 54.8874898,34.1260902 58.3675873,37.5637842 C61.8476848,41.0014782 64,45.7535846 64,51 C64,56.2464154 61.8476848,60.9957132 58.3675873,64.4362158 C54.8874898,67.8739098 50.0767669,70 44.7656377,70 L44.3220959,69.9915743 L43.878554,69.9775314 L43,69.9382114 L43.0767669,69.0759793 C43.0852965,68.9776792 43.0909829,68.8484848 43.0909829,68.6940133 L43.0909829,62.3747228 L43.9865963,62.4337029 C44.1429732,62.4449372 44.270918,62.4505543 44.376117,62.4533629 L44.7656377,62.45898 C47.9699431,62.45898 50.8700244,61.1754619 52.9683184,59.1027347 C55.0666125,57.0300074 56.3659626,54.1624538 56.3659626,51 C56.3659626,47.8347376 55.0666125,44.9699926 52.9683184,42.8972653 Z M44.7770106,37.8783444 C48.4390739,37.881153 51.757108,39.3472284 54.1596263,41.720473 C56.5649878,44.0965262 58.0519903,47.3769401 58.0519903,51 C58.0519903,54.6230599 56.5649878,57.9034738 54.1596263,60.279527 C51.757108,62.649963 48.4390739,64.118847 44.7770106,64.1244642 L44.7770106,68.3373245 C49.6190089,68.3317073 54.0032494,66.3937916 57.1762794,63.2594235 C60.3521527,60.1222469 62.3168156,55.7886179 62.3168156,51 C62.3168156,46.2113821 60.3521527,41.8777531 57.1762794,38.7405765 C54.0032494,35.6062084 49.6190089,33.6682927 44.7770106,33.6626755 L44.7770106,37.8783444 L44.7770106,37.8783444 Z"/>
    <path fill="#FFFFFE" d="M7.64722753,15.9981949 L13.4435946,15.9981949 C14.8977055,15.9981949 16.0908222,17.1245487 16.0908222,18.5 C16.0908222,19.8754513 14.8977055,20.9990975 13.4435946,20.9990975 L12.4024857,20.9990975 C10.9455067,20.9990975 9.75525813,22.1254513 9.75525813,23.4981949 L9.75525813,23.5009025 C9.75525813,24.8736462 10.9455067,26 12.4024857,26 L28.5927342,26 C30.0497132,26 31.2399618,24.8736462 31.2399618,23.5009025 L31.2399618,23.4981949 C31.2399618,22.1254513 30.0497132,20.9990975 28.5927342,20.9990975 L25.8422562,20.9990975 C24.3852772,20.9990975 23.1921606,19.8754513 23.1921606,18.5 C23.1921606,17.1245487 24.3852772,15.9981949 25.8422562,15.9981949 L41.3527725,15.9981949 C42.8068834,15.9981949 44,14.8745487 44,13.4990975 C44,12.1236462 42.8068834,11 41.3527725,11 L7.64722753,11 C6.19311663,11 5,12.1236462 5,13.4990975 C5,14.8745487 6.19311663,15.9981949 7.64722753,15.9981949"/>
    <path fill="#0A0B09" d="M13.1331924,15.7617417 L7.43622269,15.7617417 C6.4918957,15.7617417 5.63213531,15.3819309 5.00916138,14.7692433 C4.38618746,14.1565558 4,13.3109915 4,12.3794847 C4,11.4479778 4.38618746,10.6024136 5.00916138,9.98972603 C5.63213531,9.37981083 6.4918957,9 7.43622269,9 L40.5637773,9 C41.5081043,9 42.3706836,9.37981083 42.9908386,9.98972603 C43.6138125,10.6024136 44,11.4479778 44,12.3794847 C44,13.3109915 43.6138125,14.1565558 42.9908386,14.7692433 C42.3706836,15.3819309 41.5109232,15.7617417 40.5637773,15.7617417 L25.3192389,15.7617417 C24.8343904,15.7617417 24.3918252,15.9558056 24.0704722,16.2718526 C23.7491191,16.5878995 23.551797,17.0231572 23.551797,17.5 C23.551797,17.9796151 23.7491191,18.4148728 24.0676533,18.7253751 L24.0704722,18.7309198 C24.3890063,19.041422 24.8315715,19.2382583 25.3192389,19.2382583 L28.0225511,19.2382583 C28.969697,19.2382583 29.8294574,19.6180691 30.4524313,20.2307567 C31.0754052,20.8434442 31.4615927,21.6890085 31.4615927,22.617743 C31.4615927,23.5492498 31.0754052,24.3948141 30.4524313,25.0075016 C29.8294574,25.6201892 28.969697,26 28.0225511,26 L12.1099366,26 C11.1656096,26 10.3058492,25.6201892 9.68287526,25.0075016 C9.05990134,24.3948141 8.67371388,23.5492498 8.67371388,22.6205153 C8.67371388,21.6890085 9.05990134,20.8434442 9.68287526,20.2307567 C10.3058492,19.6180691 11.1656096,19.2382583 12.1099366,19.2382583 L13.1331924,19.2382583 C13.6180409,19.2382583 14.0606061,19.041422 14.3791402,18.7253751 C14.7004933,18.4121005 14.9006342,17.9768428 14.9006342,17.5 C14.9006342,17.0231572 14.7004933,16.5878995 14.3791402,16.2718526 C14.0606061,15.958578 13.6180409,15.7617417 13.1331924,15.7617417 Z M7.43622269,14.117743 L13.1331924,14.117743 C14.0775194,14.117743 14.9400987,14.4975538 15.5602537,15.1102414 C16.1832276,15.7229289 16.5694151,16.5684932 16.5694151,17.5 C16.5694151,18.4315068 16.1832276,19.2770711 15.5602537,19.8869863 C14.9400987,20.4996738 14.0775194,20.882257 13.1331924,20.882257 L12.1099366,20.882257 C11.6250881,20.882257 11.1853418,21.0763209 10.8639887,21.3923679 C10.5426357,21.7084149 10.3424947,22.1409002 10.3424947,22.617743 C10.3424947,23.0945858 10.5426357,23.5298434 10.8639887,23.8458904 C11.1853418,24.159165 11.6250881,24.3560013 12.1099366,24.3560013 L28.0225511,24.3560013 C28.5073996,24.3560013 28.9499648,24.159165 29.2684989,23.8458904 C29.589852,23.5298434 29.789993,23.0945858 29.789993,22.6205153 C29.789993,22.1409002 29.589852,21.7084149 29.2684989,21.3923679 C28.9499648,21.0763209 28.5073996,20.882257 28.0225511,20.882257 L25.3192389,20.882257 C24.3749119,20.882257 23.5179704,20.4996738 22.8921776,19.8869863 L22.8893587,19.8869863 C22.2663848,19.2715264 21.8801973,18.4259622 21.8801973,17.5 C21.8801973,16.5684932 22.2663848,15.7229289 22.8893587,15.1102414 C23.5123326,14.4975538 24.372093,14.117743 25.3192389,14.117743 L40.5637773,14.117743 C41.0486258,14.117743 41.491191,13.9209067 41.8097252,13.6076321 C42.1310782,13.2915851 42.3312192,12.8563275 42.3312192,12.3794847 C42.3312192,11.9026419 42.1310782,11.4673842 41.8097252,11.1541096 C41.491191,10.8380626 41.0486258,10.6412264 40.5637773,10.6412264 L7.43622269,10.6412264 C6.95137421,10.6412264 6.51162791,10.8380626 6.19027484,11.1541096 C5.86892178,11.4673842 5.67159972,11.9026419 5.67159972,12.3794847 C5.67159972,12.8563275 5.86892178,13.2915851 6.19027484,13.6076321 C6.51162791,13.9209067 6.95137421,14.117743 7.43622269,14.117743 L7.43622269,14.117743 Z"/>
    <path fill="#FFFFFE" d="M28.6803568,1 L37.3196432,1 C38.7919519,1 40,2.12344342 40,3.49864645 C40,4.87384949 38.7919519,6 37.3196432,6 L28.6803568,6 C27.2080481,6 26,4.87384949 26,3.49864645 C26,2.12344342 27.2080481,1 28.6803568,1"/>
    <path fill="#0A0B09" d="M36.6220211,1.69905699 L28.38075,1.69905699 C27.8985775,1.69905699 27.4662849,1.90282903 27.1531498,2.22427224 L27.1531498,2.2300123 C26.8372437,2.55719557 26.6432662,3.00492005 26.6432662,3.49856499 C26.6432662,3.99220992 26.8372437,4.44280443 27.1531498,4.7699877 L27.1531498,4.77285773 C27.4662849,5.09717097 27.8985775,5.29807298 28.38075,5.29807298 L36.6220211,5.29807298 C37.0986514,5.29807298 37.530944,5.09430094 37.8468502,4.7699877 C38.1627563,4.44280443 38.3567338,3.99220992 38.3567338,3.49856499 C38.3567338,3.00492005 38.1627563,2.55719557 37.8468502,2.2300123 C37.530944,1.90282903 37.0986514,1.69905699 36.6220211,1.69905699 Z M28.38075,0 L36.6220211,0 C37.5503418,0 38.3955293,0.393193932 39.0079438,1.02747027 C39.6203584,1.65887659 40,2.53710537 40,3.49856499 C40,4.46289463 39.6203584,5.33825338 39.0079438,5.97252973 C38.3955293,6.60680607 37.5503418,7 36.6220211,7 L28.38075,7 C27.4524293,7 26.6072418,6.60393604 25.9948273,5.9696597 L25.9920562,5.97252973 C25.3796416,5.33825338 25,4.46289463 25,3.49856499 C25,2.53710537 25.3796416,1.65887659 25.9920562,1.02747027 L25.9948273,1.02747027 C26.6072418,0.393193932 27.4524293,0 28.38075,0 L28.38075,0 Z"/>
    <path fill="#161513" d="M31.4524807,75 C30.8532632,74.4747475 30.8683696,73.790404 31.3845022,73 C34.8312613,73.6287879 34.8891689,74.280303 31.4524807,75"/>
    <path fill="#6569CC" d="M5.83722982 29L43.1627702 29C43.6243935 29 44 29.3803082 44 29.8441689L44 70.2807215C44 72.8766128 41.8868549 75 39.3006176 75L9.69938244 75C7.11314513 75 5 72.8766128 5 70.2807215L5 29.8441689C5 29.3803082 5.37560653 29 5.83722982 29M9 75L40 75 40 79.2174471C40 79.6472097 39.6899436 80 39.3122386 80L9.68776141 80C9.31005637 80 9 79.6472097 9 79.2174471L9 75"/>
    <path fill="#494DA1" d="M44.8420742 38.9855465C51.626385 38.9855465 57.1251293 44.5878807 57.1251293 51.5 57.1251293 58.4121193 51.626385 64.0144535 44.8420742 64.0144535 44.5669966 64.0144535 44.291919 64.0058742 44.0196484 63.9858556L44.0196484 69.516695C44.0196484 69.6739836 44.0140346 69.8284124 44 69.9799814 44.2806914 69.9942804 44.5585759 70 44.8420742 70 54.8711774 70 63 61.7151801 63 51.5 63 41.2819601 54.8711774 33 44.8420742 33 44.5669966 33 44.291919 33.0057196 44.0196484 33.0200186L44.0196484 39.0141444C44.291919 38.9941258 44.5669966 38.9855465 44.8420742 38.9855465M44 64.1518948L44 29.9393047C44 29.4206702 43.5938158 29 43.0992105 29L23 29 23 75 38.9406579 75C41.5739474 75 43.7540789 72.8764798 43.9806579 70.1911055L44 69.7243345 44 64.1518948M39.1570016 75L23 75 23 80 39.3166392 80C39.6919275 80 40 79.6472097 40 79.2174471L40 75 39.1570016 75"/>
    <path fill="#FFFFFE" d="M7.64722753,15.9981949 L13.4435946,15.9981949 C14.8977055,15.9981949 16.0908222,17.1245487 16.0908222,18.5 C16.0908222,19.8754513 14.8977055,20.9990975 13.4435946,20.9990975 L12.4024857,20.9990975 C10.9455067,20.9990975 9.75525813,22.1254513 9.75525813,23.4981949 L9.75525813,23.5009025 C9.75525813,24.8736462 10.9455067,26 12.4024857,26 L28.5927342,26 C30.0497132,26 31.2399618,24.8736462 31.2399618,23.5009025 L31.2399618,23.4981949 C31.2399618,22.1254513 30.0497132,20.9990975 28.5927342,20.9990975 L25.8422562,20.9990975 C24.3852772,20.9990975 23.1921606,19.8754513 23.1921606,18.5 C23.1921606,17.1245487 24.3852772,15.9981949 25.8422562,15.9981949 L41.3527725,15.9981949 C42.8068834,15.9981949 44,14.8745487 44,13.4990975 C44,12.1236462 42.8068834,11 41.3527725,11 L7.64722753,11 C6.19311663,11 5,12.1236462 5,13.4990975 C5,14.8745487 6.19311663,15.9981949 7.64722753,15.9981949"/>
    <path fill="#171816" d="M13.1331924,15.7617417 L7.43622269,15.7617417 C6.4918957,15.7617417 5.63213531,15.3819309 5.00916138,14.7692433 C4.38618746,14.1565558 4,13.3109915 4,12.3794847 C4,11.4479778 4.38618746,10.6024136 5.00916138,9.98972603 C5.63213531,9.37981083 6.4918957,9 7.43622269,9 L40.5637773,9 C41.5081043,9 42.3706836,9.37981083 42.9908386,9.98972603 C43.6138125,10.6024136 44,11.4479778 44,12.3794847 C44,13.3109915 43.6138125,14.1565558 42.9908386,14.7692433 C42.3706836,15.3819309 41.5109232,15.7617417 40.5637773,15.7617417 L25.3192389,15.7617417 C24.8343904,15.7617417 24.3918252,15.9558056 24.0704722,16.2718526 C23.7491191,16.5878995 23.551797,17.0231572 23.551797,17.5 C23.551797,17.9796151 23.7491191,18.4148728 24.0676533,18.7253751 L24.0704722,18.7309198 C24.3890063,19.041422 24.8315715,19.2382583 25.3192389,19.2382583 L28.0225511,19.2382583 C28.969697,19.2382583 29.8294574,19.6180691 30.4524313,20.2307567 C31.0754052,20.8434442 31.4615927,21.6890085 31.4615927,22.617743 C31.4615927,23.5492498 31.0754052,24.3948141 30.4524313,25.0075016 C29.8294574,25.6201892 28.969697,26 28.0225511,26 L12.1099366,26 C11.1656096,26 10.3058492,25.6201892 9.68287526,25.0075016 C9.05990134,24.3948141 8.67371388,23.5492498 8.67371388,22.6205153 C8.67371388,21.6890085 9.05990134,20.8434442 9.68287526,20.2307567 C10.3058492,19.6180691 11.1656096,19.2382583 12.1099366,19.2382583 L13.1331924,19.2382583 C13.6180409,19.2382583 14.0606061,19.041422 14.3791402,18.7253751 C14.7004933,18.4121005 14.9006342,17.9768428 14.9006342,17.5 C14.9006342,17.0231572 14.7004933,16.5878995 14.3791402,16.2718526 C14.0606061,15.958578 13.6180409,15.7617417 13.1331924,15.7617417 Z M7.43622269,14.117743 L13.1331924,14.117743 C14.0775194,14.117743 14.9400987,14.4975538 15.5602537,15.1102414 C16.1832276,15.7229289 16.5694151,16.5684932 16.5694151,17.5 C16.5694151,18.4315068 16.1832276,19.2770711 15.5602537,19.8869863 C14.9400987,20.4996738 14.0775194,20.882257 13.1331924,20.882257 L12.1099366,20.882257 C11.6250881,20.882257 11.1853418,21.0763209 10.8639887,21.3923679 C10.5426357,21.7084149 10.3424947,22.1409002 10.3424947,22.617743 C10.3424947,23.0945858 10.5426357,23.5298434 10.8639887,23.8458904 C11.1853418,24.159165 11.6250881,24.3560013 12.1099366,24.3560013 L28.0225511,24.3560013 C28.5073996,24.3560013 28.9499648,24.159165 29.2684989,23.8458904 C29.589852,23.5298434 29.789993,23.0945858 29.789993,22.6205153 C29.789993,22.1409002 29.589852,21.7084149 29.2684989,21.3923679 C28.9499648,21.0763209 28.5073996,20.882257 28.0225511,20.882257 L25.3192389,20.882257 C24.3749119,20.882257 23.5179704,20.4996738 22.8921776,19.8869863 L22.8893587,19.8869863 C22.2663848,19.2715264 21.8801973,18.4259622 21.8801973,17.5 C21.8801973,16.5684932 22.2663848,15.7229289 22.8893587,15.1102414 C23.5123326,14.4975538 24.372093,14.117743 25.3192389,14.117743 L40.5637773,14.117743 C41.0486258,14.117743 41.491191,13.9209067 41.8097252,13.6076321 C42.1310782,13.2915851 42.3312192,12.8563275 42.3312192,12.3794847 C42.3312192,11.9026419 42.1310782,11.4673842 41.8097252,11.1541096 C41.491191,10.8380626 41.0486258,10.6412264 40.5637773,10.6412264 L7.43622269,10.6412264 C6.95137421,10.6412264 6.51162791,10.8380626 6.19027484,11.1541096 C5.86892178,11.4673842 5.67159972,11.9026419 5.67159972,12.3794847 C5.67159972,12.8563275 5.86892178,13.2915851 6.19027484,13.6076321 C6.51162791,13.9209067 6.95137421,14.117743 7.43622269,14.117743 L7.43622269,14.117743 Z"/>
    <path fill="#FFFFFE" d="M28.6803568,1 L37.3196432,1 C38.7919519,1 40,2.12344342 40,3.49864645 C40,4.87384949 38.7919519,6 37.3196432,6 L28.6803568,6 C27.2080481,6 26,4.87384949 26,3.49864645 C26,2.12344342 27.2080481,1 28.6803568,1"/>
    <path fill="#171816" d="M36.6220211 1.69905699L28.38075 1.69905699C27.8985775 1.69905699 27.4662849 1.90282903 27.1531498 2.22427224L27.1531498 2.2300123C26.8372437 2.55719557 26.6432662 3.00492005 26.6432662 3.49856499 26.6432662 3.99220992 26.8372437 4.44280443 27.1531498 4.7699877L27.1531498 4.77285773C27.4662849 5.09717097 27.8985775 5.29807298 28.38075 5.29807298L36.6220211 5.29807298C37.0986514 5.29807298 37.530944 5.09430094 37.8468502 4.7699877 38.1627563 4.44280443 38.3567338 3.99220992 38.3567338 3.49856499 38.3567338 3.00492005 38.1627563 2.55719557 37.8468502 2.2300123 37.530944 1.90282903 37.0986514 1.69905699 36.6220211 1.69905699zM28.38075 0L36.6220211 0C37.5503418 0 38.3955293.393193932 39.0079438 1.02747027 39.6203584 1.65887659 40 2.53710537 40 3.49856499 40 4.46289463 39.6203584 5.33825338 39.0079438 5.97252973 38.3955293 6.60680607 37.5503418 7 36.6220211 7L28.38075 7C27.4524293 7 26.6072418 6.60393604 25.9948273 5.9696597L25.9920562 5.97252973C25.3796416 5.33825338 25 4.46289463 25 3.49856499 25 2.53710537 25.3796416 1.65887659 25.9920562 1.02747027L25.9948273 1.02747027C26.6072418.393193932 27.4524293 0 28.38075 0L28.38075 0zM52.9683184 42.8972653C50.8700244 40.8245381 47.9699431 39.54102 44.7656377 39.54102L44.3732738 39.5438285C44.2737612 39.5494457 44.1458164 39.5550628 43.9894395 39.5662971L43.0909829 39.6252772 43.0909829 32.0561715 43.8984565 32.01966C44.2225833 32.0056171 44.5125914 32 44.7656377 32 50.0767669 32 54.8874898 34.1260902 58.3675873 37.5637842 61.8476848 41.0014782 64 45.7535846 64 51 64 56.2464154 61.8476848 60.9957132 58.3675873 64.4362158 54.8874898 67.8739098 50.0767669 70 44.7656377 70L44.3220959 69.9915743 43.878554 69.9775314 43 69.9382114 43.0767669 69.0759793C43.0852965 68.9776792 43.0909829 68.8484848 43.0909829 68.6940133L43.0909829 62.3747228 43.9865963 62.4337029C44.1429732 62.4449372 44.270918 62.4505543 44.376117 62.4533629L44.7656377 62.45898C47.9699431 62.45898 50.8700244 61.1754619 52.9683184 59.1027347 55.0666125 57.0300074 56.3659626 54.1624538 56.3659626 51 56.3659626 47.8347376 55.0666125 44.9699926 52.9683184 42.8972653zM44.7770106 37.8783444C48.4390739 37.881153 51.757108 39.3472284 54.1596263 41.720473 56.5649878 44.0965262 58.0519903 47.3769401 58.0519903 51 58.0519903 54.6230599 56.5649878 57.9034738 54.1596263 60.279527 51.757108 62.649963 48.4390739 64.118847 44.7770106 64.1244642L44.7770106 68.3373245C49.6190089 68.3317073 54.0032494 66.3937916 57.1762794 63.2594235 60.3521527 60.1222469 62.3168156 55.7886179 62.3168156 51 62.3168156 46.2113821 60.3521527 41.8777531 57.1762794 38.7405765 54.0032494 35.6062084 49.6190089 33.6682927 44.7770106 33.6626755L44.7770106 37.8783444 44.7770106 37.8783444z"/>
    <path fill="#171816" d="M43.2248465,29.683133 L1.77515355,29.683133 C1.74950928,29.683133 1.72956373,29.691648 1.71531691,29.7058397 L1.71246755,29.7086781 C1.69822073,29.7228697 1.68967264,29.7427381 1.68967264,29.7682831 L1.68967264,68.9600217 C1.68967264,70.1577994 2.17976319,71.2477203 2.97473564,72.0367776 C3.76685873,72.8258349 4.86101437,73.316867 6.06344583,73.316867 L38.9365542,73.316867 C40.1389856,73.316867 41.2331413,72.8258349 42.0252644,72.0367776 C42.8173875,71.2477203 43.3103274,70.1577994 43.3103274,68.9600217 L43.3103274,29.7682831 C43.3103274,29.7455764 43.2989299,29.7257081 43.2846831,29.7086781 L43.2846831,29.7058397 C43.2704363,29.691648 43.2476414,29.683133 43.2248465,29.683133 Z M1.77515355,28 L43.2248465,28 C43.7120876,28 44.153739,28.1986835 44.4785665,28.5194154 C44.8005445,28.837309 45,29.2800894 45,29.7682831 L45,68.9600217 C45,70.6204481 44.3190021,72.133281 43.2191477,73.2260402 C42.1221427,74.3187994 40.6062813,75 38.9365542,75 L6.06344583,75 C4.39371874,75 2.87785728,74.3187994 1.77800291,73.2260402 C0.68099791,72.1304427 0,70.6204481 0,68.9600217 L0,29.7682831 C0,29.285766 0.199455455,28.8429857 0.521433547,28.5222538 L0.52428291,28.5194154 C0.846261002,28.1986835 1.29076173,28 1.77515355,28 L1.77515355,28 Z"/>
    <path fill="#171816" d="M6.67685178,78.3458856 L39.3231482,78.3458856 L39.3231482,75.6541144 L6.67685178,75.6541144 L6.67685178,78.3458856 Z M5.83701202,74 L41,74 L41,78.4937238 C41,78.9037657 40.8275077,79.2803347 40.5532166,79.5564854 L40.5475611,79.5592748 C40.2704422,79.8298466 39.8886969,80 39.4730186,80 L6.52698138,80 C6.11130312,80 5.72955777,79.8298466 5.44961119,79.5592748 L5.44678344,79.5564854 C5.1696646,79.2803347 5,78.9037657 5,78.4937238 L5,74 L5.83701202,74 L5.83701202,74 Z"/>
  </g>
</svg>
