<svg xmlns="http://www.w3.org/2000/svg" width="56" height="80" viewBox="0 0 56 80">
  <g fill="none" fill-rule="evenodd">
    <path fill="#6569CC" d="M12.1228345,9.59409537 L12.1228345,62.7528906 C12.1228345,65.8854515 9.49774471,73.1010382 8.61254001,76.4078001 L5.27928645,76.4078001 C4.39408175,73.1010382 1.76899195,65.8854515 1.76899195,62.7528906 L1.76899195,9.59409537 C1.76899195,6.74270087 4.09799604,4.40779691 6.94591323,4.40779691 C9.79383042,4.40779691 12.1228345,6.74270087 12.1228345,9.59409537"/>
    <path fill="#494DA1" d="M6.94591323,4.40779691 L6.94591323,76.4078001 L8.61254001,76.4078001 C9.49774471,73.1010382 12.1228345,65.8854515 12.1228345,62.7528906 L12.1228345,9.59409537 C12.1228345,6.74270087 9.79383042,4.40779691 6.94591323,4.40779691"/>
    <path fill="#ACD1D9" d="M12.7516351,37.322608 L12.7516351,40.4429443 C12.7516351,40.7516162 12.5013358,41.0022211 12.1930404,41.0022211 L1.69878606,41.0022211 C1.39049063,41.0022211 1.14019137,40.7516162 1.14019137,40.4429443 L1.14019137,37.322608 C1.14019137,37.0139362 1.39049063,36.7633313 1.69878606,36.7633313 L12.1930404,36.7633313 C12.5013358,36.7633313 12.7516351,37.0139362 12.7516351,37.322608"/>
    <path fill="#171816" d="M11.5245582 36.0145728L11.5245582 9.59409537C11.5245582 8.33190252 11.0086976 7.18584364 10.181489 6.35456893 9.34817564 5.52329422 8.20351439 5.00680369 6.94591323 5.00680369 5.68831207 5.00680369 4.54059839 5.52329422 3.71338986 6.35456893 2.88007647 7.18584364 2.36726823 8.33190252 2.36726823 9.59409537L2.36726823 36.0145728 11.5245582 36.0145728zM2.36726823 40.2534626L11.5276107 40.2534626 11.5276107 37.5120897 2.36726823 37.5120897 2.36726823 40.2534626zM8.14246579 77.0098631L8.14246579 78.4218076C8.14246579 79.0819375 7.60523811 79.616765 6.94591323 79.616765 6.28353592 79.616765 5.74936067 79.0819375 5.74936067 78.4218076L5.74936067 77.0098631 4.82142195 77.0098631 4.70237718 76.5636641C4.45818278 75.6498732 4.07662903 74.4335227 3.65844612 73.0857575 2.55346646 69.534503 1.17071567 65.1000192 1.17071567 62.7528906L1.17071567 41.6379017C1.0211466 41.5706663.88989211 41.4789816.776952201 41.3659037.538862661 41.1305797.392346021 40.8035709.392346021 40.4429443L.392346021 37.322608C.392346021 36.9619815.538862661 36.6349727.776952201 36.3965924.88989211 36.2865708 1.0211466 36.1918299 1.17071567 36.1276506L1.17071567 9.59409537C1.17071567 8.00183757 1.82088326 6.5562753 2.86481432 5.50801344 3.91179781 4.45975158 5.3555972 3.80879013 6.94591323 3.80879013 8.53317683 3.80879013 9.98002865 4.45975158 11.0239597 5.50801344 12.0709432 6.5562753 12.7211108 8.00183757 12.7211108 9.59409537L12.7211108 36.1276506C12.8706799 36.1918299 13.0019343 36.2865708 13.1148743 36.3965924 13.3529638 36.6349727 13.4994804 36.9619815 13.4994804 37.322608L13.4994804 40.4429443C13.4994804 40.8035709 13.3529638 41.1305797 13.1148743 41.3659037L13.1118218 41.3659037C12.9988819 41.4789816 12.8676274 41.5706663 12.7211108 41.6379017L12.7211108 62.7528906C12.7211108 65.1000192 11.33836 69.534503 10.2333803 73.0857575 9.81519743 74.4335227 9.43364368 75.6498732 9.18944928 76.5636641L9.07040451 77.0098631 8.14246579 77.0098631zM7.01611912 2.82470757C6.35679424 2.82470757 5.81956656 2.2898801 5.81956656 1.62975018 5.81956656.966564107 6.35679424.431736628 7.01611912.431736628 9.45806312.431736628 11.6741273 1.42804382 13.2797055 3.03558241 14.8852837 4.643121 15.8803758 6.861891 15.8803758 9.30681661L15.8803758 27.707938 15.8773234 27.7965666C15.8620613 27.979936 15.8590088 28.1419123 15.8651137 28.2824955 15.8864807 28.8050984 16.0055255 29.1993427 16.200881 29.4530037 16.3229782 29.6180362 16.4908618 29.712777 16.6831649 29.7250017L16.7869475 29.731114C17.44322 29.7066647 17.9957098 30.2200991 18.0201293 30.880229 18.0414963 31.5403589 17.5256356 32.0904672 16.8693632 32.1149164 16.7350562 32.1210288 16.612959 32.1179726 16.5122288 32.1118603L16.506124 32.1118603C15.6178669 32.0446248 14.8547594 31.6259313 14.3022695 30.9046783 13.8199856 30.2720538 13.5208474 29.4102175 13.4811659 28.3650118 13.475061 28.1358 13.475061 27.9096444 13.4903231 27.6834888L13.4903231 9.30681661C13.4903231 7.52202091 12.7638448 5.90225769 11.5886593 4.7286934 10.4165261 3.5551291 8.79873824 2.82470757 7.01611912 2.82470757zM5.91113946 75.8118495C6.11565227 75.4542791 6.50331088 75.2128427 6.94591323 75.2128427 7.38851558 75.2128427 7.77617419 75.4542791 7.980687 75.8118495L8.15772794 75.8118495C8.40192234 74.9469571 8.73463721 73.8864706 9.09482395 72.7281871 10.1753842 69.2594489 11.5245582 64.9227621 11.5245582 62.7528906L11.5245582 41.7509795 2.36726823 41.7509795 2.36726823 62.7528906C2.36726823 64.9227621 3.71644229 69.2594489 4.79700251 72.7281871 5.15718925 73.8864706 5.48685169 74.9469571 5.73409852 75.8118495L5.91113946 75.8118495 5.91113946 75.8118495zM30.4404669 69.4122567C30.5717214 68.7460145 31.2188366 68.3120402 31.8842663 68.4465111 32.5527485 68.5779258 32.9861935 69.2288873 32.8518866 69.8920734L31.2340987 77.9908895C31.1028442 78.6571317 30.4557291 79.0880498 29.7902993 78.9566351 29.1218172 78.8252203 28.6914245 78.1742589 28.822679 77.5080167L30.4404669 69.4122567"/>
    <path fill="#ACD1D9" d="M32.8366245,21.5620063 L26.6615586,52.4964276 C25.2116543,59.7578567 26.8599665,62.8079014 29.1553939,70.3780023 L33.2364928,71.2215017 C36.5056453,55.3569906 39.7015395,39.4863672 42.8730143,23.600463 C43.2789875,21.5681186 41.3529042,19.4440894 38.590455,18.8848127 C35.8310583,18.3224798 33.2395452,19.5296618 32.8366245,21.5620063"/>
    <path fill="#171816" d="M25.9076084 52.3436198L32.0826743 21.4030861 32.0857267 21.4030861C32.3421308 20.1347809 33.2487025 19.1384737 34.5032513 18.5547478 35.6814892 18.0046395 37.1832848 17.8182139 38.7217095 18.1268858L38.7247619 18.1299419 38.746129 18.1329981C40.2906585 18.4477823 41.6093083 19.2057092 42.4884081 20.1714548 43.4255041 21.2044359 43.8803162 22.4819095 43.6269645 23.7502147 42.1831651 30.9902507 40.620321 38.7803949 38.8438067 47.5699025 37.219914 55.598427 35.6021261 63.5474914 33.9873906 71.3743095L33.8317167 72.1291803 28.6242711 71.053413 28.4594399 70.7050111C27.3880369 68.4067811 26.3776826 65.6898575 25.8221403 62.6123073 25.2635456 59.5194764 25.1628155 56.0751875 25.9076084 52.3436198zM33.5905747 21.711758L27.4155088 52.6461793C26.7103975 56.1760407 26.8050228 59.4308479 27.3300408 62.3403094 27.8306393 65.1122438 28.7219488 67.587731 29.6865167 69.7056478L32.641269 70.3168792C34.2437947 62.5389596 35.8066389 54.8649493 37.3420112 47.2703991 38.7736008 40.1862271 40.3944412 32.0965795 42.1190641 23.4476551 42.2716856 22.686672 41.9664426 21.8829027 41.3529042 21.207492 40.6783171 20.4648459 39.6557531 19.8841761 38.440886 19.6366273L38.4225714 19.6335712 38.4225714 19.6366273C37.2107567 19.3921348 36.0477808 19.532718 35.1503664 19.9483554 34.3292627 20.3334311 33.7401438 20.9477187 33.5875223 21.7025895L33.5905747 21.7025895 33.5905747 21.711758 33.5905747 21.711758zM48.3612835 69.8920734C48.230029 69.2288873 48.663474 68.5779258 49.3289038 68.4465111 49.9943335 68.3120402 50.6414487 68.7460145 50.7757556 69.4122567L52.390491 77.5080167C52.5217455 78.1742589 52.0913529 78.8252203 51.4259232 78.9566351 50.757441 79.0880498 50.1103258 78.6571317 49.9790713 77.9908895L48.3612835 69.8920734"/>
    <path fill="#86B3BD" d="M48.3765456,21.5620063 L54.5516115,52.4964276 C56.0015157,59.7578567 54.3532035,62.8079014 52.0577762,70.3780023 L47.9766773,71.2215017 C44.7075247,55.3569906 41.5116305,39.4863672 38.3401558,23.600463 C37.9341826,21.5681186 39.8602659,19.4440894 42.6227151,18.8848127 C45.3821118,18.3224798 47.9736248,19.5296618 48.3765456,21.5620063"/>
    <path fill="#171816" d="M53.7976613,52.6461793 L47.6225954,21.7025895 L47.6256478,21.7025895 C47.4730263,20.9477187 46.8839073,20.3334311 46.0628037,19.9483554 C45.1653892,19.532718 44.0024134,19.3921348 42.7936511,19.6366273 L42.7905987,19.6335712 L42.7722841,19.6366273 C41.557417,19.8841761 40.5348529,20.4648459 39.8602659,21.207492 C39.2467275,21.8829027 38.9414845,22.686672 39.094106,23.4476551 C40.8217814,32.0965795 42.4456741,40.2045641 43.8711589,47.2703991 C45.4095836,54.8649493 46.9693754,62.5359034 48.5719011,70.3168792 L51.5266534,69.7056478 C52.4912212,67.587731 53.3825308,65.1122438 53.8831293,62.3403094 C54.4081473,59.4308479 54.5027726,56.1760407 53.7976613,52.6461793 Z M49.1335482,21.4122546 L55.3055617,52.3436198 C56.0503546,56.0751875 55.9496244,59.5194764 55.3910297,62.6123073 C54.8354875,65.6898575 53.8281856,68.4067811 52.7537302,70.7050111 L52.588899,71.053413 L47.3814534,72.1291803 L47.2257795,71.3743095 C45.6140965,63.5474914 43.9932561,55.598427 42.3693634,47.5699025 C40.5897967,38.762058 39.0330574,30.9902507 37.5862056,23.7502147 C37.3328539,22.4819095 37.7876659,21.2044359 38.7247619,20.1714548 C39.6038618,19.2057092 40.9225115,18.4477823 42.4670411,18.1329981 L42.4884081,18.1299419 L42.4914606,18.1268858 C44.0298853,17.8182139 45.5316808,18.0046395 46.7099188,18.5547478 C47.9644676,19.1384737 48.8710393,20.1347809 49.1274434,21.4030861 L49.1304958,21.4030861 L49.1335482,21.4122546 L49.1335482,21.4122546 Z"/>
    <path fill="#86B3BD" d="M39.7168017,5.20239774 L41.4963684,5.20239774 C43.1294184,5.20239774 44.4633303,6.53793835 44.4633303,8.17298236 L44.4633303,25.9812093 L36.7528922,25.9812093 L36.7528922,8.17298236 C36.7528922,6.53793835 38.0868041,5.20239774 39.7168017,5.20239774"/>
    <path fill="#171816" d="M41.4963684,5.9725493 L39.7168017,5.9725493 C39.115473,5.9725493 38.5660356,6.22009802 38.1661673,6.62045459 C37.7693514,7.01775501 37.5221045,7.56786327 37.5221045,8.17298236 L37.5221045,25.2110577 L43.694118,25.2110577 L43.694118,8.17298236 C43.694118,7.56786327 43.4468712,7.01775501 43.0470028,6.62045459 C42.6471345,6.22009802 42.1007495,5.9725493 41.4963684,5.9725493 Z M39.7168017,4.43224617 L41.4963684,4.43224617 C42.5250373,4.43224617 43.4590809,4.85399584 44.1336679,5.53246269 C44.8113074,6.2078734 45.2294903,7.14305744 45.2294903,8.17298236 L45.2294903,26.7513609 L35.9836798,26.7513609 L35.9836798,8.17298236 C35.9836798,7.14305744 36.4018627,6.2078734 37.0795022,5.53246269 C37.7540892,4.85399584 38.6881328,4.43224617 39.7168017,4.43224617 L39.7168017,4.43224617 Z"/>
    <path fill="#ACD1D9" d="M40.6081113,33.1723468 C45.4431604,33.1723468 49.3868999,29.2207358 49.3868999,24.379783 C49.3868999,19.5357742 45.4431604,15.5872193 40.6081113,15.5872193 C35.7700097,15.5872193 31.8262701,19.5357742 31.8262701,24.379783 C31.8262701,29.2207358 35.7700097,33.1723468 40.6081113,33.1723468"/>
    <path fill="#171816" d="M46.2734213,18.7075556 C44.8235171,17.255881 42.8180706,16.3573709 40.6081113,16.3573709 C38.3950995,16.3573709 36.389653,17.255881 34.9397487,18.7075556 C33.4898445,20.1592302 32.5924301,22.1640692 32.5924301,24.379783 C32.5924301,26.5954969 33.4898445,28.6003359 34.9397487,30.0520105 C36.389653,31.503685 38.3950995,32.4021952 40.6081113,32.4021952 C42.8180706,32.4021952 44.8235171,31.503685 46.2734213,30.0520105 C47.7233256,28.6003359 48.62074,26.5954969 48.62074,24.379783 C48.62074,22.1640692 47.7233256,20.1592302 46.2734213,18.7075556 Z M40.6081113,14.8170677 C43.2423583,14.8170677 45.632411,15.8867227 47.3600864,17.6165075 C49.0877618,19.3493486 50.1561123,21.7392634 50.1561123,24.379783 C50.1561123,27.0203027 49.0877618,29.4102175 47.3600864,31.1400024 C45.632411,32.8697872 43.2423583,33.9424983 40.6081113,33.9424983 C37.9708117,33.9424983 35.580759,32.8697872 33.8530837,31.1400024 C32.1254083,29.4102175 31.0570578,27.0203027 31.0570578,24.379783 C31.0570578,21.7392634 32.1254083,19.3493486 33.8530837,17.6165075 C35.580759,15.8867227 37.9708117,14.8170677 40.6081113,14.8170677 L40.6081113,14.8170677 Z"/>
    <path fill="#86B3BD" d="M40.6081113,28.7806491 C43.0286882,28.7806491 45.0036105,26.8033155 45.0036105,24.379783 C45.0036105,21.9562505 43.0286882,19.9789169 40.6081113,19.9789169 C38.1844818,19.9789169 36.2095596,21.9562505 36.2095596,24.379783 C36.2095596,26.8033155 38.1844818,28.7806491 40.6081113,28.7806491"/>
    <path fill="#171816" d="M43.1721525,21.8126111 C42.51588,21.1555374 41.6093083,20.7490685 40.6081113,20.7490685 C39.6038618,20.7490685 38.6972901,21.1555374 38.0410176,21.8126111 C37.3877976,22.4696849 36.978772,23.3773635 36.978772,24.379783 C36.978772,25.3822025 37.3877976,26.2898812 38.0410176,26.9469549 C38.6972901,27.6040287 39.6038618,28.0104976 40.6081113,28.0104976 C41.6093083,28.0104976 42.51588,27.6040287 43.1721525,26.9469549 C43.8284249,26.2898812 44.2343981,25.3822025 44.2343981,24.379783 C44.2343981,23.3773635 43.8284249,22.4696849 43.1721525,21.8126111 Z M40.6081113,19.2087654 C42.0335961,19.2087654 43.324774,19.786379 44.2588175,20.7215631 C45.1928611,21.6598033 45.7728228,22.9525577 45.7728228,24.379783 C45.7728228,25.8070084 45.1928611,27.0997628 44.2588175,28.0349468 C43.324774,28.973187 42.0335961,29.5508007 40.6081113,29.5508007 C39.179574,29.5508007 37.8883961,28.973187 36.9543525,28.0349468 C36.020309,27.0997628 35.4433997,25.8070084 35.4433997,24.379783 C35.4433997,22.9525577 36.020309,21.6598033 36.9543525,20.7215631 C37.8883961,19.786379 39.179574,19.2087654 40.6081113,19.2087654 L40.6081113,19.2087654 Z"/>
    <polygon fill="#171816" points="37.351 51.845 43.807 51.845 43.807 50.305 37.351 50.305"/>
  </g>
</svg>
