<svg xmlns="http://www.w3.org/2000/svg" width="120" height="120" viewBox="0 0 120 120">
  <defs>
    <radialGradient id="logocircle-a" cy="0%" r="100%" fx="50%" fy="0%">
      <stop offset="0%" stop-color="#3C3F78"/>
      <stop offset="100%" stop-color="#2D305E"/>
    </radialGradient>
    <linearGradient id="logocircle-b" x1="50%" x2="50%" y1="0%" y2="100%">
      <stop offset="0%" stop-color="#FFF"/>
      <stop offset="98.709%" stop-color="#FFF"/>
    </linearGradient>
  </defs>
  <g fill="none" fill-rule="evenodd">
    <circle cx="60" cy="60" r="60" fill="url(#logocircle-a)"/>
    <path fill="url(#logocircle-b)" d="M52.8529412,47.2068121 C55.0592414,45.9155213 57.6207876,45.1764706 60.3529412,45.1764706 C63.0850948,45.1764706 65.6466409,45.9155213 67.8529412,47.2068121 C70.0592414,45.9155213 72.6207876,45.1764706 75.3529412,45.1764706 C83.6372124,45.1764706 90.3529412,51.9712079 90.3529412,60.3529412 C90.3529412,68.7346744 83.6372124,75.5294118 75.3529412,75.5294118 C72.6207876,75.5294118 70.0592414,74.790361 67.8529412,73.4990702 C65.6466409,74.790361 63.0850948,75.5294118 60.3529412,75.5294118 C57.6207876,75.5294118 55.0592414,74.790361 52.8529412,73.4990702 C50.6466409,74.790361 48.0850948,75.5294118 45.3529412,75.5294118 C37.0686699,75.5294118 30.3529412,68.7346744 30.3529412,60.3529412 C30.3529412,51.9712079 37.0686699,45.1764706 45.3529412,45.1764706 C48.0850948,45.1764706 50.6466409,45.9155213 52.8529412,47.2068121 Z M48.6875899,50.811478 C47.6446218,50.4383379 46.5222175,50.2352941 45.3529412,50.2352941 C39.8300937,50.2352941 35.3529412,54.765119 35.3529412,60.3529412 C35.3529412,65.9407634 39.8300937,70.4705882 45.3529412,70.4705882 C46.5222175,70.4705882 47.6446218,70.2675445 48.6875899,69.8944044 C47.6105149,68.5480884 46.7565058,67.0115908 46.182449,65.3424671 C45.9126478,65.3880454 45.6355322,65.4117647 45.3529412,65.4117647 C42.5915174,65.4117647 40.3529412,63.1468523 40.3529412,60.3529412 C40.3529412,57.5590301 42.5915174,55.2941176 45.3529412,55.2941176 C45.6355322,55.2941176 45.9126478,55.317837 46.182449,55.3634152 C46.7565058,53.6942916 47.6105149,52.157794 48.6875899,50.811478 Z M72.0182924,69.8944044 C73.0612605,70.2675445 74.1836649,70.4705882 75.3529412,70.4705882 C80.8757887,70.4705882 85.3529412,65.9407634 85.3529412,60.3529412 C85.3529412,54.765119 80.8757887,50.2352941 75.3529412,50.2352941 C74.1836649,50.2352941 73.0612605,50.4383379 72.0182924,50.811478 C73.0953674,52.157794 73.9493765,53.6942916 74.5234333,55.3634152 C74.7932346,55.317837 75.0703501,55.2941176 75.3529412,55.2941176 C78.1143649,55.2941176 80.3529412,57.5590301 80.3529412,60.3529412 C80.3529412,63.1468523 78.1143649,65.4117647 75.3529412,65.4117647 C75.0703501,65.4117647 74.7932346,65.3880454 74.5234333,65.3424671 C73.9493765,67.0115908 73.0953674,68.5480884 72.0182924,69.8944044 Z M52.8529412,47.2068121 C51.2546704,48.1422389 49.8428231,49.3674664 48.6875899,50.811478 C52.5708774,52.2007922 55.3529412,55.9481515 55.3529412,60.3529412 C55.3529412,64.7577309 52.5708774,68.5050902 48.6875899,69.8944044 C49.8428231,71.338416 51.2546704,72.5636434 52.8529412,73.4990702 C57.3364515,70.874987 60.3529412,65.9703779 60.3529412,60.3529412 C60.3529412,54.7355045 57.3364515,49.8308954 52.8529412,47.2068121 Z M46.182449,55.3634152 C45.6450043,56.9260858 45.3529412,58.6050047 45.3529412,60.3529412 C45.3529412,62.1008776 45.6450043,63.7797965 46.182449,65.3424671 C48.5490921,64.9426639 50.3529412,62.8609366 50.3529412,60.3529412 C50.3529412,57.8449458 48.5490921,55.7632185 46.182449,55.3634152 Z M67.8529412,73.4990702 C69.451212,72.5636434 70.8630593,71.338416 72.0182924,69.8944044 C68.135005,68.5050902 65.3529412,64.7577309 65.3529412,60.3529412 C65.3529412,55.9481515 68.135005,52.2007922 72.0182924,50.811478 C70.8630593,49.3674664 69.451212,48.1422389 67.8529412,47.2068121 C63.3694309,49.8308954 60.3529412,54.7355045 60.3529412,60.3529412 C60.3529412,65.9703779 63.3694309,70.874987 67.8529412,73.4990702 Z M74.5234333,65.3424671 C75.060878,63.7797965 75.3529412,62.1008776 75.3529412,60.3529412 C75.3529412,58.6050047 75.060878,56.9260858 74.5234333,55.3634152 C72.1567903,55.7632185 70.3529412,57.8449458 70.3529412,60.3529412 C70.3529412,62.8609366 72.1567903,64.9426639 74.5234333,65.3424671 Z"/>
  </g>
</svg>
