<svg xmlns="http://www.w3.org/2000/svg" width="50" height="25" viewBox="0 0 50 25">
  <defs>
    <linearGradient id="logo-a" x1="50%" x2="50%" y1="0%" y2="100%">
      <stop offset="0%" stop-color="#FFF"/>
      <stop offset="98.709%" stop-color="#FFF"/>
    </linearGradient>
  </defs>
  <path fill="url(#logo-a)" fill-rule="evenodd" d="M58.75,23.6722774 C60.5885835,22.6087143 62.7232054,22 65,22 C67.2767946,22 69.4114165,22.6087143 71.25,23.6722774 C73.0885835,22.6087143 75.2232054,22 77.5,22 C84.4035594,22 90,27.5964406 90,34.5 C90,41.4035594 84.4035594,47 77.5,47 C75.2232054,47 73.0885835,46.3912857 71.25,45.3277226 C69.4114165,46.3912857 67.2767946,47 65,47 C62.7232054,47 60.5885835,46.3912857 58.75,45.3277226 C56.9114165,46.3912857 54.7767946,47 52.5,47 C45.5964406,47 40,41.4035594 40,34.5 C40,27.5964406 45.5964406,22 52.5,22 C54.7767946,22 56.9114165,22.6087143 58.75,23.6722774 Z M55.278874,26.6412367 C54.4097339,26.3339023 53.4743969,26.1666667 52.5,26.1666667 C47.8976271,26.1666667 44.1666667,29.8976271 44.1666667,34.5 C44.1666667,39.1023729 47.8976271,42.8333333 52.5,42.8333333 C53.4743969,42.8333333 54.4097339,42.6660977 55.278874,42.3587633 C54.3813115,41.249879 53.6696372,39.9843528 53.1912565,38.6095902 C52.9664222,38.6471304 52.7354926,38.6666667 52.5,38.6666667 C50.1988135,38.6666667 48.3333333,36.8011865 48.3333333,34.5 C48.3333333,32.1988135 50.1988135,30.3333333 52.5,30.3333333 C52.7354926,30.3333333 52.9664222,30.3528696 53.1912566,30.3904098 C53.6696372,29.0156472 54.3813115,27.750121 55.278874,26.6412367 Z M74.721126,42.3587633 C75.5902661,42.6660977 76.5256031,42.8333333 77.5,42.8333333 C82.1023729,42.8333333 85.8333333,39.1023729 85.8333333,34.5 C85.8333333,29.8976271 82.1023729,26.1666667 77.5,26.1666667 C76.5256031,26.1666667 75.5902661,26.3339023 74.721126,26.6412367 C75.6186885,27.750121 76.3303628,29.0156472 76.8087434,30.3904098 C77.0335778,30.3528696 77.2645074,30.3333333 77.5,30.3333333 C79.8011865,30.3333333 81.6666667,32.1988135 81.6666667,34.5 C81.6666667,36.8011865 79.8011865,38.6666667 77.5,38.6666667 C77.2645074,38.6666667 77.0335778,38.6471304 76.8087434,38.6095902 C76.3303628,39.9843528 75.6186885,41.249879 74.721126,42.3587633 Z M58.75,23.6722774 C57.4181077,24.4427355 56.2415683,25.451886 55.278874,26.6412367 C58.5149468,27.7855362 60.8333333,30.872024 60.8333333,34.5 C60.8333333,38.127976 58.5149468,41.2144638 55.278874,42.3587633 C56.2415683,43.548114 57.4181077,44.5572645 58.75,45.3277226 C62.4862586,43.1664137 65,39.1267647 65,34.5 C65,29.8732353 62.4862586,25.8335863 58.75,23.6722774 Z M53.1912566,30.3904098 C52.7433859,31.6774932 52.5,33.0603237 52.5,34.5 C52.5,35.9396763 52.7433859,37.3225068 53.1912565,38.6095902 C55.1634591,38.2802949 56.6666667,36.5656939 56.6666667,34.5 C56.6666667,32.4343061 55.1634591,30.7197051 53.1912566,30.3904098 Z M71.25,45.3277226 C72.5818923,44.5572645 73.7584317,43.548114 74.721126,42.3587633 C71.4850532,41.2144638 69.1666667,38.127976 69.1666667,34.5 C69.1666667,30.872024 71.4850532,27.7855362 74.721126,26.6412367 C73.7584317,25.451886 72.5818923,24.4427355 71.25,23.6722774 C67.5137414,25.8335863 65,29.8732353 65,34.5 C65,39.1267647 67.5137414,43.1664137 71.25,45.3277226 Z M76.8087435,38.6095902 C77.2566141,37.3225068 77.5,35.9396763 77.5,34.5 C77.5,33.0603237 77.2566141,31.6774932 76.8087434,30.3904098 C74.8365409,30.7197051 73.3333333,32.4343061 73.3333333,34.5 C73.3333333,36.5656939 74.8365409,38.2802949 76.8087434,38.6095902 Z" transform="translate(-40 -22)"/>
</svg>
