<svg xmlns="http://www.w3.org/2000/svg" width="86" height="18" viewBox="0 0 86 18">
  <defs>
    <linearGradient id="logo2-a" x1="50%" x2="50%" y1="0%" y2="100%">
      <stop offset="0%" stop-color="#FFF"/>
      <stop offset="98.709%" stop-color="#FFF"/>
    </linearGradient>
  </defs>
  <g fill="none" fill-rule="evenodd" transform="translate(0 -3)">
    <path fill="url(#logo2-a)" d="M13.125,4.17059421 C14.4120085,3.4261 15.9062437,3 17.5,3 C19.0937563,3 20.5879915,3.4261 21.875,4.17059421 C23.1620085,3.4261 24.6562437,3 26.25,3 C31.0824916,3 35,6.91750844 35,11.75 C35,16.5824916 31.0824916,20.5 26.25,20.5 C24.6562437,20.5 23.1620085,20.0739 21.875,19.3294058 C20.5879915,20.0739 19.0937563,20.5 17.5,20.5 C15.9062437,20.5 14.4120085,20.0739 13.125,19.3294058 C11.8379915,20.0739 10.3437563,20.5 8.75,20.5 C3.91750844,20.5 0,16.5824916 0,11.75 C0,6.91750844 3.91750844,3 8.75,3 C10.3437563,3 11.8379915,3.4261 13.125,4.17059421 Z M10.6952118,6.24886571 C10.0868137,6.03373161 9.43207784,5.91666667 8.75,5.91666667 C5.52833896,5.91666667 2.91666667,8.52833896 2.91666667,11.75 C2.91666667,14.971661 5.52833896,17.5833333 8.75,17.5833333 C9.43207784,17.5833333 10.0868137,17.4662684 10.6952118,17.2511343 C10.066918,16.4749153 9.56874604,15.589047 9.23387958,14.6267131 C9.07649552,14.6529913 8.91484479,14.6666667 8.75,14.6666667 C7.13916948,14.6666667 5.83333333,13.3608305 5.83333333,11.75 C5.83333333,10.1391695 7.13916948,8.83333333 8.75,8.83333333 C8.91484479,8.83333333 9.07649552,8.84700871 9.23387959,8.87328687 C9.56874604,7.91095301 10.066918,7.02508471 10.6952118,6.24886571 Z M24.3047882,17.2511343 C24.9131863,17.4662684 25.5679222,17.5833333 26.25,17.5833333 C29.471661,17.5833333 32.0833333,14.971661 32.0833333,11.75 C32.0833333,8.52833896 29.471661,5.91666667 26.25,5.91666667 C25.5679222,5.91666667 24.9131863,6.03373161 24.3047882,6.24886571 C24.933082,7.02508471 25.431254,7.91095301 25.7661204,8.87328687 C25.9235045,8.84700871 26.0851552,8.83333333 26.25,8.83333333 C27.8608305,8.83333333 29.1666667,10.1391695 29.1666667,11.75 C29.1666667,13.3608305 27.8608305,14.6666667 26.25,14.6666667 C26.0851552,14.6666667 25.9235045,14.6529913 25.7661204,14.6267131 C25.431254,15.589047 24.933082,16.4749153 24.3047882,17.2511343 Z M13.125,4.17059421 C12.1926754,4.70991488 11.3690978,5.41632023 10.6952118,6.24886571 C12.9604628,7.04987534 14.5833333,9.2104168 14.5833333,11.75 C14.5833333,14.2895832 12.9604628,16.4501247 10.6952118,17.2511343 C11.3690978,18.0836798 12.1926754,18.7900851 13.125,19.3294058 C15.740381,17.8164896 17.5,14.9887353 17.5,11.75 C17.5,8.51126469 15.740381,5.68351042 13.125,4.17059421 Z M9.23387959,8.87328687 C8.92037016,9.77424522 8.75,10.7422266 8.75,11.75 C8.75,12.7577734 8.92037016,13.7257548 9.23387958,14.6267131 C10.6144213,14.3962064 11.6666667,13.1959857 11.6666667,11.75 C11.6666667,10.3040143 10.6144213,9.1037936 9.23387959,8.87328687 Z M21.875,19.3294058 C22.8073246,18.7900851 23.6309022,18.0836798 24.3047882,17.2511343 C22.0395372,16.4501247 20.4166667,14.2895832 20.4166667,11.75 C20.4166667,9.2104168 22.0395372,7.04987534 24.3047882,6.24886571 C23.6309022,5.41632023 22.8073246,4.70991488 21.875,4.17059421 C19.259619,5.68351042 17.5,8.51126469 17.5,11.75 C17.5,14.9887353 19.259619,17.8164896 21.875,19.3294058 Z M25.7661204,14.6267131 C26.0796298,13.7257548 26.25,12.7577734 26.25,11.75 C26.25,10.7422266 26.0796298,9.77424522 25.7661204,8.87328687 C24.3855787,9.1037936 23.3333333,10.3040143 23.3333333,11.75 C23.3333333,13.1959857 24.3855787,14.3962064 25.7661204,14.6267131 Z"/>
    <text fill="#FFF" font-family="FredokaOne-Regular, Fredoka One" font-size="20" letter-spacing="3.353">
      <tspan x="40" y="19">TFS</tspan>
    </text>
  </g>
</svg>
